<mxfile host="app.diagrams.net" modified="2023-09-13T09:11:37.403Z" agent="Mozilla/5.0 (X11; Linux x86_64) AppleWebKit/537.36 (KHTML, like Gecko) Chrome/115.0.0.0 Safari/537.36 Edg/115.0.1901.203" version="21.7.5" etag="sKbcER_q7CoSFBDt0Ikb" type="github">
  <diagram name="Page-1" id="UZloo3pL2Uis3hPf9HZ4">
    <mxGraphModel>
      <root>
        <mxCell id="0" />
        <mxCell id="1" parent="0" />
      </root>
    </mxGraphModel>
  </diagram>
</mxfile>
